<svg width="19" height="7" viewBox="0 0 19 7" fill="none" xmlns="http://www.w3.org/2000/svg">
<path fill-rule="evenodd" clip-rule="evenodd" d="M16.8014 2.84699L15.1748 1.3265L14.8255 1L14.1269 1.65301L14.4762 1.97951L15.6088 3.03825H0.993982H0.5V3.96175H0.993982H15.6088L14.4762 5.02049L14.1269 5.34699L14.8255 6L15.1748 5.6735L16.8014 4.15301L17.1507 3.8265L17.5 3.5L17.1507 3.1735L16.8014 2.84699Z" fill="white"/>
<path d="M15.1748 1.3265L14.8333 1.69177L14.8333 1.69178L15.1748 1.3265ZM16.8014 2.84699L17.1428 2.48172L17.1428 2.48172L16.8014 2.84699ZM14.8255 1L15.1669 0.63473L14.8255 0.315575L14.484 0.63473L14.8255 1ZM14.1269 1.65301L13.7854 1.28774L13.3947 1.65301L13.7854 2.01828L14.1269 1.65301ZM14.4762 1.97951L14.1347 2.34478L14.1347 2.34478L14.4762 1.97951ZM15.6088 3.03825V3.53825H16.8759L15.9503 2.67298L15.6088 3.03825ZM0.5 3.03825V2.53825H0V3.03825H0.5ZM0.5 3.96175H0V4.46175H0.5V3.96175ZM15.6088 3.96175L15.9503 4.32702L16.8759 3.46175H15.6088V3.96175ZM14.4762 5.02049L14.1347 4.65522L14.1347 4.65522L14.4762 5.02049ZM14.1269 5.34699L13.7854 4.98172L13.3947 5.34699L13.7854 5.71226L14.1269 5.34699ZM14.8255 6L14.484 6.36527L14.8255 6.68442L15.1669 6.36527L14.8255 6ZM15.1748 5.6735L15.5162 6.03877V6.03877L15.1748 5.6735ZM16.8014 4.15301L17.1428 4.51828L17.1428 4.51828L16.8014 4.15301ZM17.1507 3.8265L16.8093 3.46123L16.8093 3.46124L17.1507 3.8265ZM17.5 3.5L17.8414 3.86527L18.2322 3.5L17.8414 3.13473L17.5 3.5ZM17.1507 3.1735L16.8093 3.53876L16.8093 3.53877L17.1507 3.1735ZM14.8333 1.69178L16.46 3.21226L17.1428 2.48172L15.5162 0.961235L14.8333 1.69178ZM14.484 1.36527L14.8333 1.69177L15.5162 0.961235L15.1669 0.63473L14.484 1.36527ZM14.4683 2.01828L15.1669 1.36527L14.484 0.63473L13.7854 1.28774L14.4683 2.01828ZM14.8176 1.61424L14.4683 1.28774L13.7854 2.01828L14.1347 2.34478L14.8176 1.61424ZM15.9503 2.67298L14.8176 1.61424L14.1347 2.34478L15.2674 3.40352L15.9503 2.67298ZM0.993982 3.53825H15.6088V2.53825H0.993982V3.53825ZM0.5 3.53825H0.993982V2.53825H0.5V3.53825ZM1 3.96175V3.03825H0V3.96175H1ZM0.993982 3.46175H0.5V4.46175H0.993982V3.46175ZM15.6088 3.46175H0.993982V4.46175H15.6088V3.46175ZM14.8176 5.38576L15.9503 4.32702L15.2674 3.59648L14.1347 4.65522L14.8176 5.38576ZM14.4683 5.71226L14.8176 5.38576L14.1347 4.65522L13.7854 4.98172L14.4683 5.71226ZM15.1669 5.63473L14.4683 4.98172L13.7854 5.71226L14.484 6.36527L15.1669 5.63473ZM14.8333 5.30822L14.484 5.63473L15.1669 6.36527L15.5162 6.03877L14.8333 5.30822ZM16.46 3.78774L14.8333 5.30823L15.5162 6.03877L17.1428 4.51828L16.46 3.78774ZM16.8093 3.46124L16.46 3.78774L17.1428 4.51828L17.4921 4.19177L16.8093 3.46124ZM17.1586 3.13473L16.8093 3.46123L17.4921 4.19178L17.8414 3.86527L17.1586 3.13473ZM16.8093 3.53877L17.1586 3.86527L17.8414 3.13473L17.4921 2.80822L16.8093 3.53877ZM16.46 3.21226L16.8093 3.53876L17.4921 2.80823L17.1428 2.48172L16.46 3.21226Z" fill="#1E252C"/>
</svg>
